# This file uses centimeters as units for non-parametric coordinates.

mtllib Steen_3_LP.mtl
g default
v -2.193667 0.148296 1.824202
v 1.108427 0.117729 2.237874
v -1.980819 2.284647 0.468680
v 1.445630 2.184562 1.167082
v -1.349218 1.340646 -2.540554
v 1.737924 1.009901 -1.860374
v -1.259173 -0.002335 -1.006760
v 1.760729 -0.086426 -0.843153
v -2.014841 1.973978 -1.389925
v 2.128998 0.435314 -1.383912
v 0.378846 -0.347009 -1.262873
v -1.743522 0.326148 -1.671952
v 1.981844 -0.280961 0.794251
v -2.110376 -0.085034 0.408959
v -0.627505 -0.172427 2.393451
v 1.509012 1.152905 2.446926
v -0.244382 2.740436 0.792995
v -2.657608 1.277344 1.861304
v 2.202805 1.721096 -0.490490
v 0.097913 1.412904 -3.149750
v -0.825299 1.227142 2.783644
v 0.083008 2.543053 -2.074880
v 0.288634 -0.011180 -2.110833
v 0.041376 -0.562161 0.658605
v 2.770335 0.883298 0.655202
v -2.923958 1.028072 -0.042278
v -1.650976 0.844254 -2.189809
v 2.031024 0.688699 -1.573232
v 1.304832 0.222645 -1.958942
v 2.004495 0.142601 -1.141200
v 1.200688 -0.259739 -1.120845
v 0.359237 -0.153015 -1.793042
v -0.531244 -0.210760 -1.180047
v -1.529667 0.115606 -1.319824
v 0.291622 -0.493893 -0.393198
v -1.110026 -0.401479 0.528886
v -1.693612 0.009098 -0.452762
v 1.969194 -0.228299 -0.164382
v 1.112124 -0.543059 0.749137
v 1.626194 -0.086563 1.688438
v -0.303046 -0.491275 1.630515
v -2.282379 0.005475 1.241040
v 2.538204 0.253091 0.789750
v 2.380880 1.099615 1.694480
v 2.638641 0.726624 -0.501179
v 2.667391 1.391036 0.249591
v -2.741354 0.473345 0.274851
v -2.444753 0.749505 -1.023903
v -3.017567 1.290709 0.940726
v -2.716547 1.460830 -0.628390
v -1.562208 -0.077167 2.155262
v -0.822164 0.413210 2.820540
v -1.871574 1.265743 2.461618
v -2.528647 0.571055 1.965557
v 0.361738 -0.118374 2.401704
v 1.333324 0.519055 2.462472
v 0.352545 1.148383 2.792993
v 1.530179 1.823828 1.948097
v 0.748842 2.487559 1.026329
v -0.606162 2.124938 2.120050
v -1.262410 2.592056 0.576469
v -2.414683 1.970772 1.252215
v 0.019611 2.808774 -0.759951
v -0.972172 2.436965 -1.959589
v -2.121511 2.143510 -0.348300
v 1.948208 2.059069 0.442921
v 1.210213 2.137627 -1.492982
v 2.005972 1.463103 -1.479395
v 1.005308 1.143744 -2.603679
v 0.071469 2.181954 -2.982300
v -0.719030 1.457669 -3.019098
v -1.686885 1.687615 -2.175638
v 0.185238 0.584901 -2.694283
v -0.792137 -0.031807 -1.956641
v -1.795106 0.484103 2.531755
v 0.262725 0.417768 2.804960
v 0.480897 1.967584 2.214877
v -1.631142 2.103329 1.806543
v -1.081430 2.648103 -0.796644
v 1.105147 2.416426 -0.303828
v 1.045183 1.828059 -2.432828
v -0.811507 2.115202 -2.791042
v -0.775515 0.593833 -2.578743
v 1.206285 0.439287 -2.166162
v 1.259956 0.039133 -1.674974
v -0.618004 -0.144464 -1.647286
v -0.746717 -0.298469 -0.408941
v 1.212872 -0.464706 -0.263201
v 0.745036 -0.424192 1.681170
v -1.364627 -0.352354 1.435691
v 2.157973 0.456121 1.760038
v 2.453513 0.207468 -0.269581
v 2.514566 1.140511 -0.826060
v 2.328507 1.681191 1.216482
v -2.246799 0.395672 -0.662962
v -2.867243 0.605611 1.168267
v -2.759148 1.802313 0.329330
v -2.305538 1.170103 -1.523050
vt 0.261759 0.860935
vt 0.225080 0.404815
vt 0.258524 0.447819
vt 0.260967 0.812721
vt 0.270623 0.344510
vt 0.304051 0.385750
vt 0.348104 0.423053
vt 0.299983 0.492441
vt 0.280279 0.749647
vt 0.320031 0.285337
vt 0.355614 0.320465
vt 0.366242 0.239659
vt 0.668299 0.189053
vt 0.625995 0.231293
vt 0.403584 0.348653
vt 0.467735 0.390271
vt 0.416571 0.465879
vt 0.593027 0.304132
vt 0.589158 0.390083
vt 0.552966 0.443689
vt 0.508479 0.519604
vt 0.369890 0.540921
vt 0.343199 0.687207
vt 0.460947 0.595142
vt 0.424007 0.652193
vt 0.548725 0.651941
vt 0.474913 0.706332
vt 0.600194 0.582870
vt 0.669608 0.639842
vt 0.621104 0.700720
vt 0.551552 0.752878
vt 0.643512 0.499342
vt 0.661022 0.414692
vt 0.735361 0.457258
vt 0.717582 0.556744
vt 0.758458 0.614216
vt 0.713497 0.680109
vt 0.791459 0.521766
vt 0.834996 0.562285
vt 0.800192 0.640020
vt 0.753604 0.699950
vt 0.677573 0.727125
vt 0.623559 0.782433
vt 0.718445 0.750103
vt 0.680387 0.800076
vt 0.772081 0.785623
vt 0.630238 0.848065
vt 0.809765 0.716642
vt 0.866996 0.726324
vt 0.833772 0.812251
vt 0.576901 0.894097
vt 0.858667 0.637599
vt 0.854804 0.510994
vt 0.867748 0.481188
vt 0.881978 0.636264
vt 0.907117 0.644654
vt 0.893013 0.727072
vt 0.887300 0.448924
vt 0.906705 0.412907
vt 0.120984 0.074804
vt 0.072775 0.127426
vt 0.864708 0.810503
vt 0.549458 0.924124
vt 0.034911 0.197400
vt 0.013019 0.260175
vt 0.078789 0.245228
vt 0.470314 0.932378
vt 0.127923 0.170586
vt 0.186871 0.230668
vt 0.128695 0.309128
vt 0.382979 0.911446
vt 0.180469 0.113716
vt 0.879887 0.348923
vt 0.827344 0.270323
vt 0.244474 0.163958
vt 0.290362 0.228005
vt 0.234178 0.291867
vt 0.757085 0.208597
vt 0.180412 0.362814
vt 0.309374 0.882301
vt 0.720814 0.254157
vt 0.784780 0.310708
vt 0.750953 0.348010
vt 0.685933 0.293843
vt 0.838353 0.380415
vt 0.809595 0.416161
vt 0.794180 0.453809
vt 0.735053 0.391612
vt 0.666276 0.347203
vt 0.478363 0.878219
vt 0.394748 0.845681
vt 0.423201 0.804387
vt 0.504730 0.844899
vt 0.327563 0.816819
vt 0.354331 0.766368
vt 0.407797 0.733291
vt 0.473576 0.782358
vt 0.549638 0.818700
vt 0.343120 0.175266
vt 0.705192 0.165917
vt 0.291257 0.109170
vt 0.223694 0.064752
vt 0.969714 0.602033
vt 0.166589 0.045019
vt 0.140737 0.432646
vt 0.190410 0.455148
vt 0.083005 0.383719
vt 0.034014 0.316247
vt 0.869861 0.882910
vt 0.528866 0.953299
vt 0.940161 0.577286
vt 0.909441 0.558440
vt 0.880356 0.555608
vt 0.831876 0.887395
vt 0.789151 0.884488
vt 0.728493 0.851241
vt 0.535701 0.331700
vt 0.473361 0.281910
vt 0.415484 0.254205
vt 0.342227 0.612022
vt 0.264389 0.562151
vt 0.215859 0.507743
vt 0.954914 0.656865
vt 0.935303 0.736473
vt 0.901597 0.821070
vn -0.551502 -0.743051 0.379106
vn -0.321240 -0.805216 0.498429
vn -0.430602 -0.256952 0.865192
vn -0.753640 -0.288739 0.590471
vn -0.098195 -0.808665 0.580016
vn -0.145856 -0.271229 0.951399
vn -0.128321 0.387074 0.913076
vn -0.409729 0.403183 0.818270
vn -0.739166 0.353074 0.573561
vn 0.141827 -0.768559 0.623860
vn 0.134959 -0.265917 0.954502
vn 0.371974 -0.661180 0.651519
vn 0.448276 -0.283830 0.847637
vn 0.461657 0.268113 0.845569
vn 0.139137 0.332866 0.932653
vn 0.149896 0.752751 0.641012
vn -0.065076 0.803857 0.591252
vn 0.405758 0.704744 0.581977
vn 0.363647 0.898842 0.244631
vn 0.242990 0.939701 0.240662
vn 0.029886 0.977090 0.210720
vn -0.299604 0.808384 0.506708
vn -0.561988 0.765289 0.313850
vn -0.249276 0.957407 0.145718
vn -0.438094 0.897027 0.058443
vn -0.287167 0.951695 -0.108684
vn -0.548634 0.824442 -0.138914
vn 0.129224 0.988433 -0.079376
vn 0.188145 0.942198 -0.277243
vn -0.340140 0.890789 -0.301331
vn -0.645433 0.688686 -0.330344
vn 0.395630 0.916195 -0.063740
vn 0.520068 0.854115 0.004211
vn 0.631544 0.749731 -0.197625
vn 0.502079 0.829493 -0.244661
vn 0.609713 0.553006 -0.567834
vn 0.223432 0.681181 -0.697187
vn 0.726734 0.506913 -0.463570
vn 0.716512 -0.001014 -0.697574
vn 0.554234 -0.114280 -0.824479
vn 0.180977 -0.124157 -0.975619
vn -0.378210 0.660523 -0.648588
vn -0.701653 0.410977 -0.582048
vn -0.333319 -0.124268 -0.934589
vn -0.610187 -0.082852 -0.787914
vn -0.278593 -0.560980 -0.779543
vn -0.615600 -0.371093 -0.695217
vn 0.101194 -0.556350 -0.824763
vn 0.066616 -0.767843 -0.637166
vn -0.273496 -0.772448 -0.573170
vn -0.590873 -0.638213 -0.493512
vn 0.449798 -0.444044 -0.774924
vn 0.756450 -0.102348 -0.645994
vn 0.765094 -0.403278 -0.501994
vn 0.414104 -0.642773 -0.644485
vn 0.335170 -0.833698 -0.438872
vn 0.081732 -0.925525 -0.369761
vn 0.613706 -0.696254 -0.372283
vn 0.438825 -0.849029 -0.294250
vn 0.234540 -0.926937 -0.292879
vn 0.005477 -0.969089 -0.246650
vn -0.189952 -0.952141 -0.239470
vn -0.447901 -0.870954 -0.202049
vn -0.200831 -0.963131 -0.179011
vn -0.334280 -0.927325 -0.168300
vn -0.212714 -0.961596 -0.173456
vn -0.384756 -0.893166 -0.232846
vn -0.049195 -0.989643 -0.134859
vn -0.056474 -0.998276 -0.015970
vn -0.219498 -0.971749 -0.086740
vn -0.460457 -0.877365 -0.134941
vn 0.174607 -0.976683 -0.124913
vn 0.481912 -0.868004 -0.119709
vn 0.498136 -0.852485 0.158527
vn 0.167572 -0.983077 0.074016
vn 0.162010 -0.938228 0.305746
vn -0.059927 -0.977717 0.201191
vn 0.449811 -0.776204 0.441790
vn -0.248377 -0.960238 0.127485
vn -0.538192 -0.838086 0.089225
vn 0.714180 -0.409102 0.567964
vn 0.828323 -0.523913 0.198486
vn 0.987121 -0.034812 0.156142
vn 0.808885 0.149230 0.568715
vn 0.801114 -0.580868 -0.144251
vn 0.957666 -0.181660 -0.223329
vn 0.886089 0.296060 -0.356643
vn 0.870924 0.490230 -0.034145
vn 0.710275 0.635199 0.303369
vn -0.629542 -0.727412 -0.273037
vn -0.783717 -0.601800 -0.153702
vn -0.968117 -0.129827 -0.214230
vn -0.816874 -0.425196 -0.389775
vn -0.890830 -0.427903 0.152712
vn -0.967658 0.205992 0.145620
vn -0.776350 0.628420 -0.048672
vn -0.872529 0.364054 -0.325818
vn -0.839596 0.009259 -0.543132
s 1
g Steen_3
usemtl initialShadingGroup
f 1/106/1 51/2/2 75/3/3 54/122/4
f 51/2/2 15/5/5 52/6/6 75/3/3
f 75/3/3 52/6/6 21/7/7 53/8/8
f 54/122/4 75/3/3 53/8/8 18/121/9
f 15/5/5 55/10/10 76/11/11 52/6/6
f 55/10/10 2/12/12 56/119/13 76/11/11
f 76/11/11 56/119/13 16/118/14 57/15/15
f 52/6/6 76/11/11 57/15/15 21/7/7
f 21/7/7 57/15/15 77/16/16 60/17/17
f 57/15/15 16/118/14 58/117/18 77/16/16
f 77/16/16 58/117/18 4/19/19 59/20/20
f 60/17/17 77/16/16 59/20/20 17/21/21
f 18/121/9 53/8/8 78/22/22 62/120/23
f 53/8/8 21/7/7 60/17/17 78/22/22
f 78/22/22 60/17/17 17/21/21 61/24/24
f 62/120/23 78/22/22 61/24/24 3/25/25
f 3/25/25 61/24/24 79/26/26 65/27/27
f 61/24/24 17/21/21 63/28/28 79/26/26
f 79/26/26 63/28/28 22/29/29 64/30/30
f 65/27/27 79/26/26 64/30/30 9/31/31
f 17/21/21 59/20/20 80/32/32 63/28/28
f 59/20/20 4/19/19 66/33/33 80/32/32
f 80/32/32 66/33/33 19/34/34 67/35/35
f 63/28/28 80/32/32 67/35/35 22/29/29
f 22/29/29 67/35/35 81/36/36 70/37/37
f 67/35/35 19/34/34 68/38/38 81/36/36
f 81/36/36 68/38/38 6/39/39 69/40/40
f 70/37/37 81/36/36 69/40/40 20/41/41
f 9/31/31 64/30/30 82/42/42 72/43/43
f 64/30/30 22/29/29 70/37/37 82/42/42
f 82/42/42 70/37/37 20/41/41 71/44/44
f 72/43/43 82/42/42 71/44/44 5/45/45
f 5/45/45 71/44/44 83/46/46 27/116/47
f 71/44/44 20/41/41 73/48/48 83/46/46
f 83/46/46 73/48/48 23/49/49 74/50/50
f 27/116/47 83/46/46 74/50/50 12/115/51
f 20/41/41 69/40/40 84/52/52 73/48/48
f 69/40/40 6/39/39 28/113/53 84/52/52
f 84/52/52 28/113/53 10/112/54 29/55/55
f 73/48/48 84/52/52 29/55/55 23/49/49
f 23/49/49 29/55/55 85/56/56 32/57/57
f 29/55/55 10/112/54 30/111/58 85/56/56
f 85/56/56 30/111/58 8/103/59 31/123/60
f 32/57/57 85/56/56 31/123/60 11/124/61
f 12/115/51 74/50/50 86/62/62 34/114/63
f 74/50/50 23/49/49 32/57/57 86/62/62
f 86/62/62 32/57/57 11/124/61 33/125/64
f 34/114/63 86/62/62 33/125/64 7/109/65
f 7/65/65 33/64/64 87/66/66 37/108/67
f 33/64/64 11/61/61 35/68/68 87/66/66
f 87/66/66 35/68/68 24/69/69 36/70/70
f 37/108/67 87/66/66 36/70/70 14/107/71
f 11/61/61 31/60/60 88/72/72 35/68/68
f 31/60/60 8/104/59 38/102/73 88/72/72
f 88/72/72 38/102/73 13/101/74 39/75/75
f 35/68/68 88/72/72 39/75/75 24/69/69
f 24/69/69 39/75/75 89/76/76 41/77/77
f 39/75/75 13/101/74 40/99/78 89/76/76
f 89/76/76 40/99/78 2/12/12 55/10/10
f 41/77/77 89/76/76 55/10/10 15/5/5
f 14/107/71 36/70/70 90/79/79 42/105/80
f 36/70/70 24/69/69 41/77/77 90/79/79
f 90/79/79 41/77/77 15/5/5 51/2/2
f 42/105/80 90/79/79 51/2/2 1/106/1
f 2/100/12 40/78/78 91/81/81 56/13/13
f 40/78/78 13/74/74 43/82/82 91/81/81
f 91/81/81 43/82/82 25/83/83 44/84/84
f 56/13/13 91/81/81 44/84/84 16/14/14
f 13/74/74 38/73/73 92/85/85 43/82/82
f 38/73/73 8/59/59 30/58/58 92/85/85
f 92/85/85 30/58/58 10/54/54 45/86/86
f 43/82/82 92/85/85 45/86/86 25/83/83
f 25/83/83 45/86/86 93/87/87 46/88/88
f 45/86/86 10/54/54 28/53/53 93/87/87
f 93/87/87 28/53/53 6/39/39 68/38/38
f 46/88/88 93/87/87 68/38/38 19/34/34
f 16/14/14 44/84/84 94/89/89 58/18/18
f 44/84/84 25/83/83 46/88/88 94/89/89
f 94/89/89 46/88/88 19/34/34 66/33/33
f 58/18/18 94/89/89 66/33/33 4/19/19
f 7/110/65 37/67/67 95/90/90 34/63/63
f 37/67/67 14/71/71 47/91/91 95/90/90
f 95/90/90 47/91/91 26/92/92 48/93/93
f 34/63/63 95/90/90 48/93/93 12/51/51
f 14/71/71 42/80/80 96/94/94 47/91/91
f 42/80/80 1/1/1 54/4/4 96/94/94
f 96/94/94 54/4/4 18/9/9 49/95/95
f 47/91/91 96/94/94 49/95/95 26/92/92
f 26/92/92 49/95/95 97/96/96 50/97/97
f 49/95/95 18/9/9 62/23/23 97/96/96
f 97/96/96 62/23/23 3/25/25 65/27/27
f 50/97/97 97/96/96 65/27/27 9/31/31
f 12/51/51 48/93/93 98/98/98 27/47/47
f 48/93/93 26/92/92 50/97/97 98/98/98
f 98/98/98 50/97/97 9/31/31 72/43/43
f 27/47/47 98/98/98 72/43/43 5/45/45
